<svg xmlns="http://www.w3.org/2000/svg" xmlns:xlink="http://www.w3.org/1999/xlink" width="609" height="150" viewBox="0 0 609 150">
  <defs>
    <linearGradient id="linear-gradient" x1="0.5" y1="1" x2="0.5" gradientUnits="objectBoundingBox">
      <stop offset="0" stop-color="#ff6a00"/>
      <stop offset="1" stop-color="#ffb300"/>
    </linearGradient>
    <clipPath id="clip-cerato-logo">
      <rect width="609" height="150"/>
    </clipPath>
  </defs>
  <g id="cerato-logo" clip-path="url(#clip-cerato-logo)">
    <rect width="609" height="150" fill="rgba(255,255,255,0)"/>
    <g id="logo" transform="translate(-36 -222)">
      <path id="Path_1" data-name="Path 1" d="M54.08,13.84A50.221,50.221,0,0,0,94.989-7.372L78.322-21.008A28.483,28.483,0,0,1,54.08-7.372c-15.84,0-27.824-13.085-27.824-28.788S38.24-64.948,54.08-64.948A28.483,28.483,0,0,1,78.322-51.312L94.989-64.948A50.221,50.221,0,0,0,54.08-86.16a50.085,50.085,0,0,0-50,50A50.085,50.085,0,0,0,54.08,13.84Zm78.1,0c13.636,0,24.793-6.612,31.129-16.529L146.78-13.846a15.772,15.772,0,0,1-14.738,8.678c-6.2,0-14.05-3.581-15.014-12.81h48.347a46.372,46.372,0,0,0,.413-6.061c0-21.763-15.7-33.2-33.2-33.2-21.212,0-35.537,15.289-35.537,35.537A35.085,35.085,0,0,0,132.179,13.84Zm-.826-54.408c6.749,0,12.81,3.168,13.912,10.468h-28.1C119.094-38.364,126.394-40.568,131.353-40.568Zm43.113,53.306h20.8V-32.3A20.013,20.013,0,0,1,207.8-36.849a23.409,23.409,0,0,1,10.606,2.342V-56.132a24.97,24.97,0,0,0-7.438-1.1c-6.749,0-11.846,2.479-15.7,7.163v-6.061h-20.8Zm94.628,0h20.8V-56.132h-20.8V-52a24.051,24.051,0,0,0-15.152-5.234c-20.386,0-33.333,16.667-33.333,35.537S233.557,13.84,253.942,13.84a23.945,23.945,0,0,0,15.152-5.1ZM257.386-5.168c-9.917,0-15.84-7.438-15.84-16.529s5.923-16.529,15.84-16.529a13.992,13.992,0,0,1,11.708,5.785v21.625A13.879,13.879,0,0,1,257.386-5.168Zm40.083-32.782h8.953V-8.474c0,13.085,8.127,21.212,21.074,21.212H346.5V-6.27H335.209c-5.647,0-7.989-2.342-7.989-8.127V-37.951h17.218l4.545-18.182H327.22V-76.794l-20.8,10.331v10.331h-13.5ZM387.827-5.581c-8.54,0-14.876-6.612-14.876-16.116s6.336-16.116,14.876-16.116S402.7-31.2,402.7-21.7,396.366-5.581,387.827-5.581Zm0,19.421A35.683,35.683,0,0,0,423.639-21.7a35.683,35.683,0,0,0-35.813-35.537A35.683,35.683,0,0,0,352.014-21.7,35.683,35.683,0,0,0,387.827,13.84Z" transform="translate(220.92 333.16)" fill="#282828"/>
    </g>
    <g id="icon" transform="translate(-149.972 -64)">
      <path id="Path_2" data-name="Path 2" d="M295.25,178.99A79.408,79.408,0,1,1,170.84,80.98a80.679,80.679,0,0,1,9.59-8.89,26.472,26.472,0,1,1,34.2,40.34l.09.14a26.489,26.489,0,1,0,30.59.87,26.47,26.47,0,1,1,28.08-44.83l.06-.09a79.372,79.372,0,0,1,21.8,110.47Z" fill="url(#linear-gradient)"/>
    </g>
  </g>
</svg>
